<svg xmlns="http://www.w3.org/2000/svg" viewBox="0 0 720 380" font-family="system-ui, -apple-system, sans-serif">
  <defs><filter id="cs3"><feDropShadow dx="0" dy="2" stdDeviation="3" flood-opacity="0.08"/></filter></defs>
  <text x="360" y="30" text-anchor="middle" font-size="18" font-weight="700" fill="#1a1a2e">JS 图表库选型速览</text>
  <rect x="20" y="50" width="215" height="100" rx="8" fill="#f0f9f4" stroke="#42b883" stroke-width="1.5" filter="url(#cs3)"/><text x="127" y="78" text-anchor="middle" font-size="15" font-weight="700" fill="#2d8a5e">D3.js</text><text x="40" y="98" font-size="11" fill="#555">⭐ 110K+</text><text x="40" y="116" font-size="11" fill="#555">底层 SVG/Canvas 操作</text><text x="40" y="134" font-size="11" fill="#555">完全自定义 · 学习曲线陡</text>
  <rect x="252" y="50" width="215" height="100" rx="8" fill="#eff6ff" stroke="#3b82f6" stroke-width="1.5" filter="url(#cs3)"/><text x="359" y="78" text-anchor="middle" font-size="15" font-weight="700" fill="#2563eb">ECharts</text><text x="272" y="98" font-size="11" fill="#555">⭐ 65K+</text><text x="272" y="116" font-size="11" fill="#555">企业级开箱即用</text><text x="272" y="134" font-size="11" fill="#555">中文文档 · Canvas 高性能</text>
  <rect x="484" y="50" width="215" height="100" rx="8" fill="#eef2ff" stroke="#8b5cf6" stroke-width="1.5" filter="url(#cs3)"/><text x="591" y="78" text-anchor="middle" font-size="15" font-weight="700" fill="#7c3aed">Chart.js</text><text x="504" y="98" font-size="11" fill="#555">⭐ 65K+</text><text x="504" y="116" font-size="11" fill="#555">轻量级 ~60KB</text><text x="504" y="134" font-size="11" fill="#555">API 最简洁 · 原生响应式</text>
  <rect x="20" y="165" width="215" height="100" rx="8" fill="#fef3c7" stroke="#f59e0b" stroke-width="1.5" filter="url(#cs3)"/><text x="127" y="193" text-anchor="middle" font-size="15" font-weight="700" fill="#b88a20">Plotly.js</text><text x="40" y="213" font-size="11" fill="#555">⭐ 17K+</text><text x="40" y="231" font-size="11" fill="#555">科学计算 · 40+ 图表类型</text><text x="40" y="249" font-size="11" fill="#555">3D 图表 · 统计回归分析</text>
  <rect x="252" y="165" width="215" height="100" rx="8" fill="#f3e8ff" stroke="#a855f7" stroke-width="1.5" filter="url(#cs3)"/><text x="359" y="193" text-anchor="middle" font-size="15" font-weight="700" fill="#9333ea">Vega-Lite</text><text x="272" y="213" font-size="11" fill="#555">⭐ 13K+</text><text x="272" y="231" font-size="11" fill="#555">JSON 声明式配置</text><text x="272" y="249" font-size="11" fill="#555">自动推理编码方式</text>
  <rect x="484" y="165" width="215" height="100" rx="8" fill="#f1f5f9" stroke="#64748b" stroke-width="1.5" filter="url(#cs3)"/><text x="591" y="193" text-anchor="middle" font-size="15" font-weight="700" fill="#475569">推荐组合</text><text x="504" y="218" font-size="13" font-weight="600" fill="#42b883">ECharts</text><text x="563" y="218" font-size="11" fill="#888">后台管理系统</text><text x="504" y="242" font-size="13" font-weight="600" fill="#3b82f6">Chart.js</text><text x="563" y="242" font-size="11" fill="#888">简单图表 / 原型</text>
  <text x="360" y="295" text-anchor="middle" font-size="13" font-weight="700" fill="#333">BI 与数据分析平台</text>
  <rect x="20" y="310" width="160" height="50" rx="7" fill="#f0f9f4" stroke="#42b883" stroke-width="1"/><text x="100" y="335" text-anchor="middle" font-size="13" font-weight="600" fill="#2d8a5e">Apache Superset</text><text x="100" y="350" text-anchor="middle" font-size="10" fill="#666">企业 BI · 40+ 数据源</text>
  <rect x="195" y="310" width="160" height="50" rx="7" fill="#eff6ff" stroke="#3b82f6" stroke-width="1"/><text x="275" y="335" text-anchor="middle" font-size="13" font-weight="600" fill="#2563eb">Grafana</text><text x="275" y="350" text-anchor="middle" font-size="10" fill="#666">监控 · 时序数据 · 告警</text>
  <rect x="370" y="310" width="160" height="50" rx="7" fill="#eef2ff" stroke="#8b5cf6" stroke-width="1"/><text x="450" y="335" text-anchor="middle" font-size="13" font-weight="600" fill="#7c3aed">Metabase</text><text x="450" y="350" text-anchor="middle" font-size="10" fill="#666">轻量 BI · 自然语言查询</text>
  <rect x="545" y="310" width="155" height="50" rx="7" fill="#f1f5f9" stroke="#64748b" stroke-width="1"/><text x="622" y="335" text-anchor="middle" font-size="13" font-weight="600" fill="#475569">Redash</text><text x="622" y="350" text-anchor="middle" font-size="10" fill="#666">SQL 查询 · 结果分享</text>
</svg>